
<svg width="397" height="392" viewBox="0 0 397 392" fill="none" xmlns="http://www.w3.org/2000/svg">
<rect width="397" height="392" rx="42" fill="black"/>
<path d="M198.5 392C308.129 392 397 304.248 397 196C397 87.7522 308.129 0 198.5 0C88.8715 0 0 87.7522 0 196C0 304.248 88.8715 392 198.5 392Z" fill="#21242B"/>
<path d="M285.324 40.0042H111.249V152.954H285.324V40.0042ZM346.065 64.9698C337.563 55.7929 328.199 47.4335 318.097 40.0042H304.147V152.949H392.142C384.688 120.203 368.819 89.9035 346.065 64.9698ZM4.76416 152.949H93.454V40.0042H78.2681C41.0696 67.9385 15.0414 107.933 4.76416 152.949ZM33.2495 304.614C68.8255 357.292 129.557 392 198.5 392C267.445 392 328.176 357.292 363.752 304.614H33.2495Z" fill="#21242B"/>
<path d="M70.3378 101.749H326.239C328.871 101.749 331.396 102.781 333.257 104.619C335.118 106.457 336.164 108.95 336.164 111.549V284.749H60.3887V111.573C60.3857 110.282 60.641 109.003 61.1399 107.81C61.6388 106.617 62.3715 105.532 63.296 104.62C64.2204 103.707 65.3184 102.983 66.5269 102.491C67.7353 101.998 69.0304 101.746 70.3378 101.749Z" fill="#10B664"/>
<path d="M198.292 111.48C198.864 111.48 199.413 111.255 199.818 110.856C200.223 110.456 200.45 109.914 200.45 109.349C200.45 108.784 200.223 108.242 199.818 107.842C199.413 107.442 198.864 107.218 198.292 107.218C197.72 107.218 197.171 107.442 196.766 107.842C196.361 108.242 196.134 108.784 196.134 109.349C196.134 109.914 196.361 110.456 196.766 110.856C197.171 111.255 197.72 111.48 198.292 111.48Z" fill="#2C83FC"/>
<path d="M349.355 288.669H47.2178C45.8701 288.669 44.5776 289.197 43.6246 290.138C42.6716 291.079 42.1362 292.356 42.1362 293.686V299.596C42.1362 300.927 42.6716 302.203 43.6246 303.144C44.5776 304.085 45.8701 304.614 47.2178 304.614H349.355C350.703 304.614 351.995 304.085 352.948 303.144C353.901 302.203 354.437 300.927 354.437 299.596V293.686C354.437 292.356 353.901 291.079 352.948 290.138C351.995 289.197 350.703 288.669 349.355 288.669Z" fill="#10B664"/>
<path d="M154.746 199.484H73.1479V280.054H154.746V199.484Z" fill="#E6F0FF"/>
<path d="M239.088 199.484H157.49V280.054H239.088V199.484Z" fill="#C2DAFF"/>
<path d="M239.088 116.204H157.49V196.774H239.088V116.204Z" fill="#E6F0FF"/>
<path d="M73.1479 121.486V196.774H154.746V116.204H78.4978C77.0795 116.205 75.7194 116.762 74.7164 117.752C73.7133 118.742 73.1492 120.085 73.1479 121.486Z" fill="#C2DAFF"/>
<path d="M323.431 199.484H241.833V280.054H323.431V199.484Z" fill="#E6F0FF"/>
<path d="M318.097 116.204H241.833V196.774H323.431V121.486C323.43 120.088 322.868 118.747 321.868 117.757C320.868 116.768 319.512 116.209 318.097 116.204Z" fill="#C2DAFF"/>
<path d="M154.746 165.278H73.1479V166.258H154.746V165.278Z" fill="#E6F0FF"/>
<path d="M89.4935 234.7C96.1919 234.7 101.622 229.338 101.622 222.725C101.622 216.111 96.1919 210.749 89.4935 210.749C82.795 210.749 77.3657 216.111 77.3657 222.725C77.3657 229.338 82.795 234.7 89.4935 234.7Z" fill="white"/>
<path d="M154.746 234.701H73.1479V239.767H154.746V234.701Z" fill="#C2DAFF"/>
<path d="M143.049 126.15H85.9902V156.486H143.049V126.15Z" fill="#9AC2FF"/>
<path d="M222.46 296.813H174.119C172.835 296.812 171.588 297.235 170.574 298.015C169.561 298.794 168.84 299.885 168.526 301.114L167.634 304.614H168.656L169.49 301.355C169.749 300.337 170.345 299.433 171.185 298.788C172.023 298.143 173.056 297.792 174.119 297.793H222.46C223.523 297.792 224.556 298.142 225.395 298.788C226.234 299.433 226.83 300.337 227.089 301.355L227.922 304.614H228.95L228.052 301.114C227.739 299.884 227.018 298.793 226.005 298.014C224.992 297.235 223.744 296.812 222.46 296.813Z" fill="#E6F0FF"/>
<path d="M268.416 116.204H241.833V158.525H268.416V116.204Z" fill="#9AC2FF"/>
<path d="M315.337 206.349H282.718V253.125H315.337V206.349Z" fill="white"/>
<path d="M295.884 241.854H269.285C267.356 241.854 265.505 242.611 264.141 243.958C262.777 245.305 262.01 247.133 262.01 249.038V257.657C262.01 259.562 262.777 261.389 264.141 262.736C265.505 264.083 267.356 264.84 269.285 264.84H295.884C296.839 264.84 297.785 264.654 298.668 264.294C299.551 263.933 300.353 263.404 301.029 262.736C301.704 262.069 302.24 261.278 302.606 260.406C302.972 259.534 303.16 258.6 303.16 257.657V249.038C303.16 248.094 302.972 247.16 302.606 246.288C302.24 245.417 301.704 244.625 301.029 243.958C300.353 243.291 299.551 242.762 298.668 242.401C297.785 242.04 296.839 241.854 295.884 241.854ZM198.351 178.982C220.917 178.982 239.212 170.301 239.212 159.593C239.212 148.885 220.917 140.204 198.351 140.204C175.783 140.204 157.49 148.885 157.49 159.593C157.49 170.301 175.783 178.982 198.351 178.982Z" fill="#C2DAFF"/>
<path d="M212.781 280.05H183.795L157.49 199.484H239.088L212.781 280.05Z" fill="#9AC2FF"/>
<path d="M209.706 138.621L212.633 143.82C214.348 146.864 215.173 150.319 215.016 153.799C214.858 157.279 213.724 160.647 211.74 163.528L208.014 168.918L191.9 167.418C190.728 167.303 189.596 166.932 188.587 166.332C187.578 165.732 186.717 164.917 186.067 163.948C185.416 162.978 184.992 161.878 184.825 160.726C184.658 159.575 184.752 158.401 185.102 157.291L190.758 139.474L201.295 135.646L209.706 138.621ZM204.164 127.981L198.396 126.818C197.91 126.714 197.407 126.706 196.917 126.795C196.427 126.884 195.959 127.068 195.542 127.337C195.125 127.606 194.766 127.953 194.485 128.36C194.205 128.767 194.01 129.225 193.91 129.707C193.81 130.189 193.808 130.685 193.905 131.168C194.001 131.651 194.193 132.11 194.47 132.518C194.748 132.927 195.104 133.278 195.52 133.549C195.935 133.821 196.401 134.008 196.89 134.101L202.658 135.264C203.144 135.368 203.648 135.376 204.138 135.287C204.628 135.198 205.095 135.014 205.512 134.745C205.929 134.476 206.289 134.128 206.569 133.722C206.849 133.315 207.044 132.857 207.144 132.375C207.244 131.893 207.246 131.396 207.149 130.914C207.053 130.431 206.861 129.972 206.584 129.563C206.306 129.154 205.95 128.804 205.534 128.533C205.119 128.261 204.653 128.073 204.164 127.981Z" fill="#53332D"/>
<path d="M206.197 134.119C204.491 133.042 202.509 132.47 200.485 132.472H200.415C198.755 132.471 197.119 132.856 195.637 133.594C196.022 133.832 196.446 133.999 196.893 134.084L202.664 135.24C203.3 135.37 203.961 135.335 204.58 135.139C205.199 134.942 205.756 134.591 206.197 134.119Z" fill="#422622"/>
<path d="M208.013 152.435H193.051V170.354H208.013V152.435Z" fill="#936D61"/>
<path d="M206.939 168.322L193.324 167.045C191.771 166.9 190.223 167.369 189.021 168.35C187.819 169.33 187.06 170.743 186.913 172.276L186.643 175.086C186.57 175.845 186.649 176.611 186.876 177.34C187.102 178.069 187.472 178.746 187.964 179.334C188.456 179.922 189.06 180.408 189.742 180.765C190.425 181.122 191.171 181.343 191.94 181.415L205.556 182.693C207.109 182.839 208.656 182.37 209.858 181.389C211.061 180.408 211.819 178.996 211.967 177.463L212.236 174.653C212.384 173.12 211.909 171.591 210.916 170.404C209.922 169.217 208.492 168.468 206.939 168.322Z" fill="#00A14F"/>
<path d="M123.07 140.841L136.152 166.459C137.35 168.808 137.583 171.524 136.802 174.039C136.021 176.555 134.286 178.675 131.96 179.958C130.42 180.807 128.685 181.253 126.921 181.251H104.665C102.976 181.252 101.314 180.843 99.8223 180.062C98.3309 179.281 97.0562 178.15 96.11 176.769C95.1632 175.389 94.5735 173.801 94.3925 172.143C94.2115 170.486 94.4448 168.81 95.0718 167.262L105.468 141.611C106.151 139.924 107.308 138.465 108.803 137.406C110.297 136.347 112.067 135.731 113.904 135.632C115.779 135.526 117.645 135.962 119.273 136.888C120.901 137.813 122.221 139.187 123.07 140.841Z" fill="#734B3F"/>
<path d="M124.772 155.105L114.784 178.782L124.47 181.167C130.996 172.039 130.827 160.965 130.057 154.55C128.474 155.569 126.694 156.055 124.772 155.105Z" fill="#5E4137"/>
<path d="M100.556 181.706L92.8393 183.343C89.5703 184.034 86.5905 185.688 84.2931 188.086C81.9958 190.484 80.489 193.513 79.9717 196.774H147.927C147.409 193.514 145.902 190.485 143.605 188.086C141.307 185.689 138.328 184.036 135.06 183.343L127.339 181.706C118.511 179.84 109.383 179.84 100.556 181.706Z" fill="#7BAAF7"/>
<path d="M121.344 165.871H108.219V183.907H121.344V165.871Z" fill="#FFA78B"/>
<path d="M121.557 173.94H107.503C107.12 173.94 106.741 174.014 106.388 174.159C106.035 174.304 105.713 174.515 105.443 174.783C105.172 175.05 104.958 175.367 104.812 175.716C104.665 176.065 104.59 176.439 104.59 176.817V183.799C104.59 184.562 104.897 185.293 105.443 185.832C105.989 186.372 106.729 186.675 107.502 186.675H121.557C122.329 186.675 123.07 186.372 123.616 185.833C124.162 185.294 124.469 184.562 124.469 183.799V176.817C124.469 176.439 124.394 176.065 124.248 175.716C124.102 175.367 123.887 175.05 123.617 174.783C123.346 174.515 123.025 174.304 122.672 174.159C122.318 174.014 121.939 173.94 121.557 173.94Z" fill="#7BAAF7"/>
<path d="M108.217 171.682C115.225 171.191 119.135 169.231 121.344 167.316V165.871H108.218V171.682H108.217Z" fill="#FF835A"/>
<path d="M118.45 143.972C117.746 145.156 116.74 146.138 115.533 146.821C114.326 147.503 112.959 147.862 111.568 147.862H103.841L102.813 157.579C102.57 160.363 103.444 163.13 105.246 165.284C107.048 167.439 109.636 168.808 112.45 169.097C115.265 169.386 118.082 168.572 120.295 166.83C122.508 165.088 123.94 162.558 124.282 159.784L124.777 155.105C121.15 153.032 118.604 148.847 118.45 143.972Z" fill="#FFA78B"/>
<path d="M115.785 137.49C114.375 137.344 112.949 137.475 111.589 137.874C110.229 138.273 108.963 138.933 107.862 139.817C106.761 140.7 105.848 141.79 105.174 143.022C104.5 144.255 104.079 145.607 103.936 147L103.839 147.883H111.568C112.959 147.883 114.326 147.524 115.533 146.841C116.741 146.159 117.746 145.176 118.45 143.991C118.623 148.867 121.15 153.051 124.772 155.124L125.398 149.211C125.625 147.112 125.216 144.995 124.221 143.127C123.226 141.259 121.692 139.725 119.812 138.721C118.565 138.052 117.197 137.634 115.785 137.49Z" fill="#734B3F"/>
<path d="M110.665 156.717C111.141 157.22 111.762 157.568 112.443 157.716C113.124 157.864 113.835 157.804 114.482 157.545C114.911 157.371 115.3 157.115 115.627 156.791C115.627 156.791 113.682 155.433 110.798 156.657L110.665 156.717Z" fill="#F26635"/>
<path d="M112.649 154.649C112.537 154.624 112.437 154.562 112.367 154.472C112.296 154.383 112.259 154.273 112.262 154.159C112.262 154.095 112.274 154.031 112.299 153.971C112.324 153.912 112.36 153.858 112.406 153.812C112.452 153.767 112.507 153.73 112.567 153.706C112.628 153.681 112.692 153.669 112.758 153.669L113.582 153.694C113.647 153.693 113.712 153.706 113.772 153.73C113.832 153.754 113.887 153.79 113.934 153.836C113.98 153.881 114.016 153.936 114.041 153.995C114.066 154.055 114.079 154.119 114.078 154.183C114.079 154.248 114.066 154.311 114.041 154.371C114.016 154.431 113.979 154.485 113.933 154.53C113.887 154.576 113.832 154.612 113.772 154.637C113.712 154.661 113.647 154.674 113.582 154.674L112.753 154.644L112.649 154.649Z" fill="#FF835A"/>
<path d="M111.179 151.768C111.346 151.768 111.507 151.703 111.625 151.586C111.743 151.469 111.81 151.311 111.81 151.146C111.81 150.981 111.743 150.822 111.625 150.706C111.507 150.589 111.346 150.523 111.179 150.523C111.012 150.523 110.852 150.589 110.734 150.706C110.615 150.822 110.549 150.981 110.549 151.146C110.549 151.311 110.615 151.469 110.734 151.586C110.852 151.703 111.012 151.768 111.179 151.768ZM115.279 151.768C115.446 151.768 115.607 151.703 115.725 151.586C115.843 151.469 115.91 151.311 115.91 151.146C115.91 150.981 115.843 150.822 115.725 150.706C115.607 150.589 115.446 150.523 115.279 150.523C115.112 150.523 114.952 150.589 114.833 150.706C114.715 150.822 114.649 150.981 114.649 151.146C114.649 151.311 114.715 151.469 114.833 151.586C114.952 151.703 115.112 151.768 115.279 151.768ZM102.51 148.896H103.731L103.841 147.862H102.928L102.51 148.896Z" fill="#5E4137"/>
<path d="M261.931 257.936H301.07C303.746 257.941 306.348 258.796 308.493 260.375C310.638 261.953 312.212 264.172 312.98 266.703L317.104 280.05H246.006L250.006 266.703C250.774 264.169 252.349 261.947 254.497 260.368C256.646 258.789 259.253 257.936 261.931 257.936Z" fill="#9AC2FF"/>
<path d="M306.355 176.748L297.159 174.44C294.541 177.533 290.959 179.681 286.973 180.549C282.986 181.416 278.821 180.955 275.129 179.235C272.68 178.095 270.516 176.436 268.789 174.376L259.603 176.718C257.044 177.371 254.777 178.846 253.161 180.91C251.543 182.974 250.667 185.511 250.67 188.121V196.774H315.342V188.16C315.344 185.542 314.461 182.997 312.833 180.93C311.205 178.863 308.926 177.391 306.355 176.748Z" fill="#E6F0FF"/>
<path d="M283.002 180.977C285.703 180.979 288.371 180.395 290.818 179.265C293.265 178.135 295.43 176.488 297.159 174.44L293.78 173.593C286.528 171.772 278.928 171.787 271.683 173.637L268.79 174.377C270.519 176.444 272.69 178.108 275.147 179.249C277.604 180.39 280.287 180.98 283.002 180.977Z" fill="white"/>
<path d="M276.442 176.019C280.669 177.606 285.34 177.606 289.567 176.019V164.111H276.442V176.019Z" fill="#FBC9BA"/>
<path d="M276.442 167.58C278.279 169.121 280.588 170.006 282.997 170.094C285.338 170.186 287.645 169.52 289.567 168.198V162.749H276.442V167.58Z" fill="#F8A68C"/>
<path d="M283.622 135.191C280.765 135.086 277.983 136.105 275.886 138.025C273.79 139.944 272.551 142.607 272.442 145.427L272.029 156.075C271.921 158.894 272.947 161.64 274.885 163.712C276.823 165.784 279.513 167.013 282.367 167.13C285.227 167.237 288.013 166.218 290.112 164.298C292.212 162.377 293.453 159.712 293.562 156.888L293.969 146.241C294.024 144.843 293.799 143.448 293.308 142.136C292.817 140.824 292.068 139.62 291.106 138.593C290.143 137.567 288.984 136.739 287.697 136.155C286.41 135.571 285.018 135.244 283.602 135.191H283.622Z" fill="#FBC9BA"/>
<path d="M284.088 151.988H284.004L283.18 151.959C283.056 151.949 282.94 151.893 282.855 151.802C282.771 151.711 282.724 151.593 282.724 151.469C282.724 151.346 282.771 151.227 282.855 151.137C282.94 151.046 283.056 150.99 283.18 150.979L284.004 151.003C284.135 150.998 284.264 151.043 284.361 151.131C284.459 151.218 284.517 151.339 284.525 151.469C284.531 151.599 284.485 151.726 284.397 151.822C284.308 151.918 284.185 151.976 284.053 151.983L284.088 151.988ZM283.855 155.82C283.321 155.82 282.794 155.697 282.317 155.46C281.84 155.224 281.425 154.88 281.106 154.457C281.049 154.38 281.015 154.287 281.011 154.191C281.006 154.095 281.03 153.999 281.08 153.916C281.129 153.833 281.203 153.767 281.29 153.724C281.378 153.682 281.476 153.666 281.573 153.678C281.637 153.687 281.7 153.708 281.756 153.741C281.812 153.774 281.861 153.818 281.9 153.869C282.166 154.221 282.524 154.495 282.936 154.661C283.348 154.827 283.798 154.878 284.237 154.81C284.667 154.741 285.071 154.563 285.408 154.291C285.496 154.213 285.609 154.168 285.727 154.165C285.845 154.162 285.961 154.2 286.053 154.273C286.145 154.347 286.208 154.45 286.23 154.564C286.252 154.679 286.233 154.798 286.174 154.899C286.14 154.957 286.093 155.006 286.038 155.045C285.566 155.432 284.997 155.684 284.391 155.776C284.214 155.805 284.035 155.82 283.855 155.82Z" fill="#F8A68C"/>
<path d="M284.385 135.182H284.182V135.24C283.994 135.24 283.81 135.196 283.621 135.191C282.18 135.137 280.742 135.369 279.394 135.874C278.045 136.379 276.813 137.147 275.771 138.131C276.861 139.905 278.325 141.427 280.063 142.594C281.801 143.761 283.773 144.545 285.845 144.894C295.274 146.677 298.439 144.129 298.439 144.129C298.439 144.129 297.378 135.182 284.385 135.182Z" fill="#FEC010"/>
<path d="M297.045 140.703C296.854 140.407 296.647 140.121 296.426 139.847C290.842 141.115 285.85 140.827 281.767 138.959C280.385 138.33 279.105 137.504 277.965 136.509C277.66 136.675 277.364 136.857 277.076 137.053L277.146 137.117C278.216 138.345 279.462 139.413 280.843 140.287C284.535 142.635 288.783 143.438 292.867 143.438C294.638 143.429 296.406 143.29 298.157 143.022C298.055 142.704 297.936 142.391 297.8 142.086C292.456 142.854 287.741 142.414 283.905 140.772C285.858 141.331 287.882 141.614 289.915 141.611C292.32 141.586 294.713 141.282 297.045 140.703Z" fill="#FAA31B"/>
<path d="M279.776 136.769L279.414 135.858C279.696 135.745 286.361 133.192 293.691 134.961L293.458 135.911C286.456 134.216 279.845 136.739 279.776 136.769Z" fill="#FEC010"/>
<path d="M290.321 261.15V243.231H275.359V261.15L282.843 268.534L290.321 261.15Z" fill="#734B3F"/>
<path d="M282.843 268.535L275.359 261.15V268.535H282.843Z" fill="white"/>
<path d="M290.321 268.535V261.15L282.843 268.535H290.321Z" fill="white"/>
<path d="M275.359 252.983C275.359 252.983 279.537 257.422 290.321 257.422V248.034H275.359V252.983Z" fill="#53332D"/>
<path d="M282.793 217.903C281.375 217.895 279.97 218.163 278.657 218.692C277.345 219.221 276.151 220.001 275.144 220.986C274.136 221.97 273.335 223.141 272.786 224.432C272.237 225.723 271.951 227.108 271.945 228.507L271.896 239.159C271.888 240.558 272.16 241.946 272.695 243.241C273.231 244.536 274.021 245.715 275.019 246.708C276.016 247.702 277.201 248.493 278.508 249.034C279.815 249.575 281.217 249.856 282.634 249.861C284.051 249.868 285.456 249.599 286.769 249.071C289.418 248.001 291.528 245.936 292.637 243.331C293.186 242.041 293.471 240.657 293.477 239.258L293.527 228.605C293.539 225.779 292.415 223.064 290.401 221.056C288.385 219.05 285.645 217.916 282.783 217.903H282.793Z" fill="#734B3F"/>
<path d="M293.518 232.442L292.133 232.466L291.483 239.326C291.47 239.446 291.431 239.563 291.37 239.669C291.309 239.775 291.227 239.867 291.129 239.94C291.031 240.013 290.918 240.066 290.799 240.095C290.679 240.124 290.555 240.128 290.433 240.108C290.271 240.081 290.119 240.011 289.994 239.904C288.023 238.077 285.438 237.033 282.735 236.972C280.033 236.912 277.402 237.839 275.35 239.576C275.223 239.686 275.067 239.758 274.901 239.785C274.734 239.811 274.563 239.791 274.408 239.726C274.252 239.661 274.119 239.554 274.022 239.417C273.925 239.281 273.87 239.12 273.861 238.954L273.409 232.583H271.945L271.901 242.726C271.872 248.503 276.397 253.448 282.243 253.677C283.692 253.737 285.138 253.507 286.495 253.002C287.852 252.497 289.092 251.727 290.14 250.738C291.189 249.749 292.025 248.562 292.599 247.247C293.172 245.932 293.471 244.516 293.478 243.084L293.518 232.442Z" fill="black"/>
<path d="M282.625 246.598C281.562 246.601 280.541 246.192 279.782 245.458C279.023 244.725 278.586 243.726 278.565 242.678L278.521 240.065L280.317 239.434C281.817 238.903 283.457 238.903 284.957 239.434L286.614 240.022L286.654 242.545C286.662 243.073 286.564 243.597 286.365 244.088C286.167 244.578 285.871 245.025 285.496 245.401C285.122 245.779 284.675 246.078 284.182 246.284C283.689 246.489 283.16 246.596 282.625 246.598Z" fill="#734B3F"/>
<path d="M281.424 235.655C281.356 235.658 281.289 235.648 281.226 235.625C281.163 235.602 281.105 235.566 281.057 235.52C281.008 235.474 280.969 235.419 280.943 235.358C280.916 235.297 280.902 235.231 280.902 235.165C280.902 235.098 280.916 235.033 280.943 234.972C280.969 234.911 281.008 234.855 281.057 234.81C281.105 234.764 281.163 234.728 281.226 234.705C281.289 234.682 281.356 234.672 281.424 234.675L283.747 234.626C283.874 234.632 283.994 234.687 284.082 234.778C284.17 234.869 284.219 234.99 284.219 235.116C284.219 235.242 284.17 235.363 284.082 235.455C283.994 235.546 283.874 235.6 283.747 235.606L281.424 235.655Z" fill="#53332D"/>
<path d="M283.972 241.12L284.682 241.735L284.06 242.434C283.745 242.786 283.303 243.001 282.829 243.031C282.355 243.061 281.889 242.905 281.531 242.597L280.822 241.983L281.444 241.283C281.599 241.109 281.788 240.966 281.999 240.863C282.21 240.76 282.439 240.7 282.674 240.685C282.909 240.669 283.144 240.7 283.367 240.775C283.589 240.85 283.795 240.967 283.972 241.12Z" fill="#422622"/>
<path d="M283.339 268.534H282.346V280.049H283.339V268.534Z" fill="#E6F0FF"/>
<path d="M105.861 219.407L88.2783 249.331C87.8852 250.018 87.6361 250.777 87.5459 251.561C87.4557 252.345 87.5262 253.14 87.7533 253.897C87.9803 254.653 88.3593 255.357 88.8676 255.967C89.3759 256.576 90.0032 257.078 90.7121 257.443C91.6613 257.93 92.7247 258.156 93.7918 258.098L130.459 255.687C131.389 255.621 132.29 255.339 133.089 254.867C133.889 254.394 134.566 253.742 135.064 252.965C135.563 252.187 135.869 251.304 135.959 250.388C136.048 249.472 135.919 248.548 135.58 247.691L125.08 221.45L105.861 219.407Z" fill="#422622"/>
<path d="M90.7544 255.618H138.132C140.632 255.619 143.03 256.6 144.798 258.346C146.566 260.091 147.56 262.459 147.56 264.928V280.054H81.3311V264.928C81.3314 262.46 82.3241 260.093 84.0911 258.347C85.8582 256.601 88.2548 255.62 90.7544 255.618Z" fill="#9AC2FF"/>
<path d="M114.981 214.83C119.007 214.83 122.271 212.143 122.271 208.828C122.271 205.513 119.007 202.826 114.981 202.826C110.955 202.826 107.69 205.513 107.69 208.828C107.69 212.143 110.955 214.83 114.981 214.83Z" fill="#422622"/>
<path d="M115.383 214.468C112.526 214.367 109.745 215.389 107.651 217.31C105.557 219.231 104.32 221.894 104.212 224.715L104.093 227.782C111.47 227.278 118.697 225.477 125.433 222.465C124.853 220.241 123.562 218.261 121.752 216.82C119.941 215.38 117.708 214.554 115.384 214.468H115.383Z" fill="#422622"/>
<path d="M121.199 242.678H107.687V255.623H121.199V242.678Z" fill="#936D61"/>
<path d="M114.769 268.564L107.687 255.618H121.199L114.768 268.564H114.769Z" fill="white"/>
<path d="M107.687 245.927C110.485 248.611 115.036 251.948 121.199 253.124V235.916C116.692 237.589 112.188 239.269 107.687 240.958V245.927Z" fill="#734B3F"/>
<path d="M104.074 227.782L103.782 235.362C103.675 238.182 104.705 240.929 106.647 242.999C108.588 245.07 111.283 246.296 114.139 246.407C116.999 246.519 119.788 245.505 121.891 243.588C123.992 241.668 125.236 239.004 125.349 236.18L125.755 225.532C125.794 224.504 125.682 223.476 125.423 222.48C118.683 225.488 111.454 227.284 104.074 227.782Z" fill="#936D61"/>
<path d="M117.608 229.584C117.694 229.582 117.778 229.563 117.856 229.529C117.934 229.494 118.004 229.444 118.061 229.381C118.119 229.319 118.163 229.246 118.191 229.166C118.22 229.086 118.231 229.002 118.225 228.917C118.219 228.833 118.195 228.751 118.156 228.676C118.117 228.601 118.063 228.535 117.997 228.481C117.931 228.427 117.854 228.387 117.772 228.364C117.69 228.34 117.604 228.333 117.519 228.344C117.359 228.363 117.212 228.442 117.11 228.566C117.007 228.689 116.956 228.846 116.967 229.005C116.979 229.164 117.051 229.313 117.17 229.42C117.289 229.528 117.446 229.586 117.607 229.584H117.608ZM112.44 229.47C112.523 229.464 112.603 229.442 112.677 229.405C112.751 229.369 112.818 229.318 112.872 229.256C112.926 229.194 112.967 229.123 112.994 229.045C113.02 228.967 113.03 228.885 113.024 228.804C113.018 228.722 112.996 228.643 112.959 228.57C112.922 228.496 112.871 228.431 112.808 228.378C112.745 228.324 112.673 228.283 112.594 228.257C112.515 228.232 112.432 228.221 112.35 228.227C112.183 228.239 112.028 228.316 111.918 228.441C111.809 228.565 111.754 228.728 111.766 228.893C111.778 229.058 111.856 229.211 111.982 229.319C112.108 229.427 112.273 229.482 112.44 229.47Z" fill="#422622"/>
<path d="M113.585 236.116C112.697 235.914 111.907 235.415 111.348 234.703C111.308 234.652 111.278 234.594 111.261 234.532C111.244 234.47 111.239 234.405 111.248 234.341C111.256 234.277 111.277 234.215 111.309 234.159C111.342 234.103 111.385 234.054 111.437 234.014C111.488 233.975 111.547 233.946 111.61 233.929C111.673 233.912 111.739 233.908 111.804 233.916C111.869 233.924 111.931 233.945 111.988 233.977C112.045 234.009 112.094 234.051 112.134 234.102C112.376 234.414 112.68 234.674 113.027 234.867C113.374 235.059 113.757 235.179 114.153 235.221C114.549 235.262 114.949 235.223 115.329 235.107C115.709 234.991 116.062 234.799 116.364 234.544C116.414 234.502 116.471 234.471 116.533 234.451C116.595 234.432 116.66 234.424 116.725 234.43C116.79 234.435 116.854 234.452 116.912 234.482C116.97 234.512 117.022 234.553 117.063 234.602C117.106 234.651 117.138 234.708 117.158 234.769C117.178 234.831 117.186 234.895 117.18 234.959C117.175 235.024 117.157 235.086 117.127 235.143C117.097 235.201 117.056 235.251 117.006 235.293C116.54 235.684 115.988 235.962 115.394 236.105C114.8 236.248 114.181 236.252 113.585 236.116ZM115.665 232.515L115.611 232.521L113.698 232.528C113.6 232.528 113.504 232.499 113.423 232.445C113.341 232.391 113.277 232.315 113.24 232.225C113.202 232.135 113.192 232.037 113.21 231.942C113.229 231.847 113.276 231.759 113.345 231.69C113.439 231.599 113.565 231.548 113.696 231.547L115.609 231.54C115.674 231.536 115.739 231.545 115.801 231.567C115.863 231.588 115.919 231.621 115.968 231.663C116.017 231.706 116.057 231.758 116.085 231.816C116.114 231.874 116.13 231.937 116.134 232.002C116.138 232.066 116.129 232.13 116.107 232.191C116.086 232.252 116.052 232.308 116.009 232.356C115.966 232.405 115.913 232.444 115.854 232.472C115.795 232.5 115.732 232.516 115.667 232.52V232.515H115.665Z" fill="#734B3F"/>
<path d="M95.8912 268.054C95.8057 268.103 95.7364 268.175 95.6919 268.262C95.6474 268.349 95.6297 268.447 95.641 268.544C95.649 268.608 95.6698 268.669 95.7023 268.725C97.6303 272.174 98.2662 276.184 97.4985 280.05H98.491C99.2537 276.011 98.5704 271.837 96.5565 268.241C96.4919 268.13 96.3861 268.049 96.2617 268.015C96.1378 267.98 96.0047 267.994 95.8912 268.054Z" fill="#7BAAF7"/>
<path d="M234.86 262.939C234.332 259.612 232.617 256.58 230.024 254.391C227.433 252.201 224.134 250.997 220.722 250.998H209.473L209.994 248.034H186.734L187.23 250.998H177.211C173.801 250.998 170.502 252.202 167.911 254.391C165.32 256.581 163.606 259.612 163.078 262.939L160.378 280.049H237.268L234.86 262.939Z" fill="#FEC010"/>
<path d="M285.597 232.53C285.789 232.53 285.973 232.454 286.109 232.32C286.245 232.186 286.321 232.004 286.321 231.815C286.321 231.625 286.245 231.443 286.109 231.309C285.973 231.175 285.789 231.099 285.597 231.099C285.405 231.099 285.221 231.175 285.085 231.309C284.949 231.443 284.873 231.625 284.873 231.815C284.873 232.004 284.949 232.186 285.085 232.32C285.221 232.454 285.405 232.53 285.597 232.53ZM279.567 232.53C279.76 232.53 279.944 232.454 280.08 232.32C280.216 232.186 280.293 232.003 280.293 231.813C280.293 231.623 280.216 231.441 280.08 231.307C279.944 231.173 279.76 231.097 279.567 231.097C279.375 231.097 279.19 231.173 279.054 231.307C278.918 231.441 278.842 231.623 278.842 231.813C278.842 232.003 278.918 232.186 279.054 232.32C279.19 232.454 279.375 232.53 279.567 232.53ZM286.624 148.965C286.719 148.965 286.813 148.946 286.901 148.911C286.989 148.875 287.069 148.822 287.136 148.756C287.203 148.69 287.257 148.611 287.293 148.524C287.33 148.438 287.348 148.345 287.348 148.251C287.349 148.157 287.33 148.064 287.294 147.977C287.257 147.891 287.204 147.812 287.137 147.745C287.07 147.679 286.99 147.626 286.902 147.59C286.815 147.554 286.72 147.536 286.625 147.536C286.434 147.536 286.249 147.611 286.114 147.745C285.978 147.879 285.901 148.06 285.901 148.25C285.901 148.439 285.977 148.621 286.113 148.755C286.248 148.889 286.432 148.965 286.624 148.965ZM280.595 148.965C280.69 148.965 280.784 148.946 280.872 148.911C280.959 148.875 281.039 148.822 281.106 148.756C281.174 148.69 281.227 148.611 281.264 148.524C281.3 148.438 281.319 148.345 281.319 148.251C281.319 148.157 281.3 148.064 281.264 147.977C281.228 147.891 281.174 147.812 281.107 147.745C281.04 147.679 280.96 147.626 280.873 147.59C280.785 147.554 280.691 147.536 280.596 147.536C280.404 147.536 280.22 147.611 280.084 147.745C279.948 147.879 279.872 148.06 279.872 148.25C279.871 148.439 279.948 148.621 280.083 148.755C280.219 148.889 280.403 148.965 280.595 148.965Z" fill="#422622"/>
<path d="M234.767 280.049V277.536H236.91L236.841 277.047H234.767V268.663H235.664L235.595 268.172H234.767V262.43C234.633 261.739 234.447 261.059 234.211 260.396V268.172H225.72V259.789H233.973C233.908 259.626 233.833 259.46 233.763 259.298H225.72V251.885L225.159 251.689V259.298H216.673V250.998H216.112V259.298H207.621V250.914H209.487L209.571 250.425H207.621V248.034H207.066V250.425H198.575V248.034H198.004V250.425H189.518V248.034H188.958V250.425H187.141L187.225 250.914H188.958V259.298H180.476V250.998H179.916V259.298H171.429V252.203C171.242 252.286 171.053 252.37 170.869 252.463V259.298H164.175C164.101 259.46 164.031 259.626 163.961 259.789H170.869V268.172H162.378V267.349L161.822 270.892V277.047H160.829L160.755 277.536H161.803V280.049H162.359V277.536H170.85V280.049H171.41V277.536H179.896V280.049H180.457V277.536H188.948V280.049H189.509V277.536H198.004V280.049H198.565V277.536H207.056V280.049H207.612V277.536H216.103V280.049H216.663V277.536H225.149V280.049H225.71V277.536H234.23V280.049H234.767ZM170.869 277.047H162.378V268.663H170.869V277.047ZM179.916 277.047H171.429V268.663H179.916V277.047ZM179.916 268.172H171.429V259.789H179.916V268.172ZM188.967 277.047H180.476V268.663H188.967V277.047ZM188.967 268.172H180.476V259.789H188.967V268.172ZM198.004 277.047H189.518V268.663H198.004V277.047ZM198.004 268.172H189.518V259.789H198.004V268.172ZM198.004 259.298H189.518V250.914H198.004V259.298ZM207.056 277.047H198.575V268.663H207.066L207.056 277.047ZM207.056 268.172H198.575V259.789H207.066L207.056 268.172ZM207.056 259.298H198.575V250.914H207.066L207.056 259.298ZM216.103 277.047H207.621V268.663H216.112L216.103 277.047ZM216.103 268.172H207.621V259.789H216.112L216.103 268.172ZM225.149 277.047H216.663V268.663H225.149V277.047ZM225.149 268.172H216.663V259.789H225.149V268.172ZM225.71 277.047V268.663H234.23V277.047H225.71Z" fill="#FAA31B"/>
<path d="M204.817 253.82L202.336 255.051C201.077 255.686 199.684 256.017 198.27 256.017C196.856 256.017 195.462 255.686 194.203 255.051L191.771 253.82V235.347H204.817V253.82Z" fill="#FBC9BA"/>
<path d="M191.771 244.873C193.521 246.361 195.664 247.327 197.949 247.656H198.014C200.393 248.02 202.823 247.482 204.817 246.152V235.347H191.771V244.873Z" fill="#F8A68C"/>
<path d="M198.222 213.596C195.391 213.596 192.674 214.705 190.671 216.681C188.669 218.659 187.544 221.34 187.543 224.136V234.75C187.544 236.835 188.17 238.873 189.344 240.606C190.517 242.339 192.185 243.69 194.136 244.488C195.431 245.018 196.82 245.29 198.222 245.289H198.287C199.689 245.29 201.078 245.019 202.374 244.489C203.669 243.96 204.846 243.183 205.837 242.204C206.83 241.226 207.617 240.064 208.154 238.785C208.691 237.506 208.967 236.134 208.967 234.75V224.136C208.966 222.051 208.339 220.013 207.165 218.279C205.992 216.546 204.324 215.195 202.373 214.397C201.077 213.868 199.689 213.596 198.287 213.596H198.222Z" fill="#FBC9BA"/>
<path d="M193.042 162.71C194.943 164.921 197.532 166.448 200.406 167.05H200.476C201.774 167.342 203.121 167.349 204.422 167.07C205.723 166.79 206.946 166.232 208.004 165.434V153.487H193.042V162.71Z" fill="#734B3F"/>
<path d="M201.255 230.046C201.447 230.046 201.632 229.97 201.767 229.835C201.903 229.701 201.979 229.518 201.979 229.328C201.979 229.138 201.902 228.956 201.766 228.822C201.63 228.688 201.445 228.613 201.252 228.613C201.157 228.613 201.063 228.632 200.975 228.668C200.887 228.704 200.807 228.757 200.74 228.824C200.604 228.958 200.528 229.141 200.528 229.331C200.529 229.521 200.605 229.703 200.742 229.837C200.878 229.971 201.062 230.046 201.255 230.046ZM195.23 230.046C195.422 230.046 195.606 229.971 195.742 229.836C195.878 229.702 195.954 229.52 195.954 229.331C195.954 229.141 195.878 228.959 195.742 228.825C195.606 228.691 195.422 228.616 195.23 228.616C195.038 228.616 194.854 228.691 194.718 228.825C194.582 228.959 194.506 229.141 194.506 229.331C194.506 229.52 194.582 229.702 194.718 229.836C194.854 229.971 195.038 230.046 195.23 230.046Z" fill="#53332D"/>
<path d="M198.654 233.411H197.706C197.575 233.411 197.448 233.359 197.355 233.267C197.262 233.176 197.21 233.051 197.21 232.921C197.21 232.791 197.262 232.666 197.355 232.575C197.448 232.483 197.575 232.431 197.706 232.431H198.654C198.786 232.432 198.912 232.484 199.005 232.575C199.098 232.667 199.15 232.792 199.151 232.922C199.15 233.051 199.098 233.176 199.005 233.267C198.912 233.359 198.786 233.411 198.654 233.411Z" fill="#F8A68C"/>
<path d="M206.893 228.001H208.967V224.136C208.964 223.349 208.873 222.565 208.693 221.798H206.893V228.001ZM189.612 228.001H187.543V224.136C187.545 223.349 187.637 222.565 187.816 221.798H189.612V228.001Z" fill="#F5825D"/>
<path d="M197.691 226.316C202.685 226.293 207.546 224.722 211.586 221.823C211.542 216.37 208.698 209.872 203.184 211.851C203.184 211.851 201.537 209.215 198.395 209.215C191.314 209.215 185.742 214.684 184.53 221.74C188.249 224.723 192.9 226.34 197.691 226.316Z" fill="#F26635"/>
<path d="M208.966 227.512H205.036C204.659 227.138 204.211 226.841 203.717 226.64C203.223 226.439 202.693 226.337 202.158 226.341C201.335 226.316 200.526 226.558 199.855 227.029C199.183 227.501 198.687 228.177 198.441 228.953H197.593C197.346 228.177 196.85 227.502 196.179 227.03C195.508 226.559 194.699 226.317 193.875 226.341C193.341 226.337 192.811 226.439 192.316 226.64C191.822 226.841 191.373 227.137 190.997 227.512H187.523V228.492H190.302C190.119 228.894 190.025 229.33 190.025 229.771C190.025 231.663 191.746 233.201 193.855 233.201C195.965 233.201 197.582 231.731 197.682 229.933H198.317C198.411 231.746 200.083 233.201 202.138 233.201C204.193 233.201 205.969 231.663 205.969 229.771C205.968 229.331 205.874 228.895 205.692 228.492H208.947L208.966 227.512ZM193.875 232.221C192.313 232.221 191.036 231.118 191.036 229.771C191.036 228.423 192.313 227.321 193.875 227.321C195.438 227.321 196.713 228.418 196.713 229.771C196.713 231.123 195.443 232.221 193.875 232.221ZM202.158 232.221C200.59 232.221 199.319 231.118 199.319 229.771C199.319 228.423 200.59 227.321 202.158 227.321C203.726 227.321 204.996 228.418 204.996 229.771C204.996 231.123 203.721 232.221 202.158 232.221Z" fill="white"/>
<path d="M197.785 237.375C197.279 237.331 196.784 237.202 196.321 236.994C196.232 236.952 196.158 236.886 196.107 236.803C196.056 236.72 196.031 236.625 196.035 236.528C196.039 236.431 196.072 236.337 196.129 236.259C196.187 236.18 196.267 236.12 196.359 236.086C196.482 236.042 196.619 236.047 196.739 236.102C197.216 236.317 197.737 236.424 198.262 236.413C198.787 236.402 199.303 236.273 199.77 236.037C199.885 235.993 200.013 235.993 200.129 236.036C200.244 236.08 200.339 236.164 200.395 236.273C200.451 236.381 200.465 236.506 200.433 236.624C200.401 236.742 200.326 236.844 200.223 236.911C199.471 237.29 198.626 237.451 197.785 237.375Z" fill="#F8A68C"/>
<path d="M198.252 265.188C198.56 265.188 198.855 265.067 199.073 264.852C199.291 264.637 199.413 264.346 199.413 264.042C199.413 263.738 199.291 263.446 199.073 263.231C198.855 263.016 198.56 262.895 198.252 262.895C197.944 262.895 197.649 263.016 197.431 263.231C197.214 263.446 197.091 263.738 197.091 264.042C197.091 264.346 197.214 264.637 197.431 264.852C197.649 265.067 197.944 265.188 198.252 265.188ZM198.252 273.998C198.56 273.998 198.855 273.878 199.073 273.663C199.291 273.448 199.413 273.156 199.413 272.852C199.413 272.548 199.291 272.257 199.073 272.042C198.855 271.827 198.56 271.706 198.252 271.706C197.944 271.706 197.649 271.827 197.431 272.042C197.214 272.257 197.091 272.548 197.091 272.852C197.091 273.156 197.214 273.448 197.431 273.663C197.649 273.878 197.944 273.998 198.252 273.998Z" fill="white"/>
<path d="M200.45 138.621C198.256 143.521 194.491 147.575 189.736 150.156V154.541C189.737 157.337 190.862 160.019 192.865 161.996C194.867 163.973 197.583 165.085 200.415 165.085H200.485C203.316 165.084 206.031 163.972 208.033 161.995C210.034 160.018 211.159 157.336 211.159 154.541V150.156C206.405 147.575 202.642 143.522 200.45 138.621Z" fill="#936D61"/>
<path d="M199.821 173.911C181.996 171.687 167.564 181.217 167.564 195.191C167.564 195.721 167.594 196.245 167.639 196.775H231.049C227.462 185.416 214.847 175.782 199.821 173.911Z" fill="#00A14F"/>
<path d="M200.485 133.388H200.415C197.583 133.388 194.866 134.499 192.864 136.477C190.861 138.454 189.736 141.136 189.736 143.933V150.155C194.491 147.574 198.256 143.521 200.45 138.621C202.641 143.521 206.405 147.575 211.159 150.155V143.933C211.16 141.848 210.535 139.809 209.362 138.075C208.189 136.341 206.522 134.989 204.572 134.19C203.276 133.66 201.887 133.388 200.485 133.388Z" fill="#53332D"/>
<path d="M203.463 149.234C203.558 149.234 203.652 149.216 203.74 149.18C203.827 149.144 203.907 149.092 203.974 149.026C204.042 148.959 204.095 148.881 204.132 148.794C204.168 148.707 204.187 148.614 204.187 148.52C204.187 148.427 204.168 148.334 204.132 148.247C204.096 148.16 204.042 148.081 203.975 148.015C203.908 147.949 203.828 147.896 203.741 147.86C203.653 147.824 203.559 147.805 203.464 147.805C203.272 147.805 203.088 147.88 202.952 148.014C202.816 148.148 202.74 148.33 202.74 148.519C202.739 148.709 202.816 148.891 202.951 149.025C203.087 149.159 203.271 149.234 203.463 149.234ZM197.438 149.234C197.533 149.235 197.627 149.216 197.715 149.18C197.803 149.145 197.883 149.092 197.95 149.026C198.018 148.96 198.071 148.881 198.108 148.794C198.144 148.707 198.163 148.614 198.163 148.52C198.163 148.427 198.145 148.334 198.109 148.247C198.072 148.16 198.019 148.081 197.952 148.014C197.885 147.948 197.805 147.895 197.717 147.859C197.63 147.823 197.535 147.804 197.44 147.804C197.248 147.804 197.064 147.879 196.928 148.013C196.792 148.147 196.715 148.328 196.715 148.518C196.715 148.708 196.791 148.89 196.926 149.024C197.062 149.158 197.246 149.234 197.438 149.234Z" fill="#422622"/>
<path d="M201.269 151.715H199.632C199.5 151.714 199.374 151.662 199.281 151.57C199.188 151.478 199.136 151.354 199.135 151.224C199.136 151.094 199.188 150.97 199.281 150.878C199.374 150.787 199.5 150.735 199.632 150.735H201.269C201.4 150.735 201.527 150.786 201.62 150.877C201.713 150.969 201.766 151.094 201.766 151.224C201.766 151.354 201.713 151.479 201.62 151.571C201.527 151.662 201.401 151.714 201.269 151.715ZM200.45 155.746C200.125 155.745 199.803 155.675 199.507 155.541C199.211 155.408 198.947 155.214 198.733 154.972C198.664 154.871 198.635 154.749 198.652 154.628C198.67 154.508 198.732 154.398 198.826 154.32C198.921 154.242 199.042 154.202 199.165 154.208C199.288 154.213 199.405 154.264 199.492 154.349C199.614 154.484 199.763 154.591 199.93 154.665C200.097 154.738 200.278 154.776 200.46 154.776C200.643 154.776 200.823 154.738 200.99 154.665C201.157 154.591 201.306 154.484 201.428 154.349C201.471 154.301 201.523 154.261 201.582 154.232C201.641 154.204 201.704 154.187 201.77 154.183C201.835 154.178 201.901 154.186 201.963 154.206C202.025 154.226 202.083 154.259 202.132 154.301C202.181 154.344 202.222 154.396 202.25 154.454C202.279 154.512 202.296 154.576 202.299 154.64C202.304 154.705 202.296 154.769 202.275 154.831C202.254 154.892 202.221 154.948 202.178 154.997C201.96 155.236 201.693 155.426 201.395 155.555C201.098 155.684 200.775 155.75 200.45 155.746Z" fill="#10B664"/>
<path d="M187.97 196.774C188.591 190.316 187.508 184.902 184.729 180.604C183.681 178.999 182.391 177.562 180.903 176.342C180.531 176.508 180.158 176.684 179.796 176.861C181.37 178.072 182.726 179.536 183.806 181.192C186.466 185.279 187.484 190.502 186.873 196.754L187.97 196.774ZM213.417 182.918C213.364 182.87 213.301 182.834 213.233 182.81C213.165 182.786 213.093 182.776 213.021 182.78C212.949 182.785 212.879 182.803 212.814 182.834C212.749 182.865 212.692 182.908 212.644 182.962C212.595 183.015 212.558 183.076 212.534 183.143C212.51 183.211 212.5 183.282 212.504 183.353C212.508 183.424 212.526 183.494 212.558 183.558C212.59 183.622 212.634 183.679 212.688 183.726C212.777 183.804 219.412 189.728 220.276 196.774H221.372C220.509 189.243 213.511 182.996 213.417 182.918Z" fill="#00833B"/>
</svg>
